<?xml version="1.0" encoding="utf-8"?>
<!-- Generator: Adobe Illustrator 25.2.2, SVG Export Plug-In . SVG Version: 6.00 Build 0)  -->
<svg version="1.1" id="Layer_1" xmlns="http://www.w3.org/2000/svg" xmlns:xlink="http://www.w3.org/1999/xlink" x="0px" y="0px"
	 viewBox="0 0 73.9 73.9" style="enable-background:new 0 0 73.9 73.9;" xml:space="preserve">
<style type="text/css">
	.st0{fill:none;}
	.st1{fill:#A7A9AC;}
</style>
<g id="Drawn">
	<path class="st0" d="M29,51.5h20.8c0.3,0,0.5,0.1,0.7,0.3l6.8,6.8v-6.1c0-0.6,0.4-1,1-1h5.4V24.3H29V51.5z"/>
	<path class="st1" d="M64.7,22.3H28c-0.6,0-1,0.4-1,1v29.2c0,0.6,0.4,1,1,1h21.4l8.2,8.2c0.2,0.2,0.4,0.3,0.7,0.3
		c0.1,0,0.3,0,0.4-0.1c0.4-0.2,0.6-0.5,0.6-0.9v-7.5h5.4c0.6,0,1-0.4,1-1V23.3C65.7,22.7,65.3,22.3,64.7,22.3z M63.7,51.5h-5.4
		c-0.6,0-1,0.4-1,1v6.1l-6.8-6.8c-0.2-0.2-0.4-0.3-0.7-0.3H29V24.3h34.7L63.7,51.5z"/>
	<path class="st1" d="M14.6,43.1v7.5c0,0.4,0.2,0.8,0.6,0.9c0.1,0.1,0.3,0.1,0.4,0.1c0.3,0,0.5-0.1,0.7-0.3l8.1-8.1
		c0.4-0.4,0.4-1,0-1.4c-0.4-0.4-1-0.4-1.4,0c0,0,0,0,0,0l-6.3,6.3v-6.1c0-0.6-0.4-1-1-1h-5.4V13.9h34.7v4.9c0,0.6,0.4,1,1,1
		s1-0.4,1-1v-5.9c0-0.6-0.4-1-1-1H9.2c-0.6,0-1,0.4-1,1v29.2c0,0.6,0.4,1,1,1H14.6z"/>
</g>
</svg>
