<svg width="24px" height="24px" viewBox="0 0 24 24" fill="none" xmlns="http://www.w3.org/2000/svg">
<title>QQ icon</title>
<path fill-rule="evenodd" clip-rule="evenodd" d="M12.01 22.5971C11.273 22.6728 9.82655 22.7479 8.51039 22.7499C7.82303 22.751 7.14833 22.7323 6.6174 22.6796C6.35515 22.6535 6.10102 22.6167 5.88881 22.5609C5.78356 22.5332 5.6633 22.4945 5.54867 22.4366C5.4489 22.3862 5.2642 22.2778 5.13904 22.0667C5.0186 21.8635 4.96011 21.6283 4.98708 21.3825C5.01282 21.1479 5.11026 20.9566 5.21252 20.8145C5.40549 20.5461 5.68865 20.3516 5.9205 20.2173C6.02247 20.1583 6.12966 20.1025 6.23855 20.0502C5.77067 19.4776 5.42159 18.8543 5.18766 18.2317C5.06372 18.3861 4.93508 18.5353 4.80898 18.6635C4.70213 18.7721 4.57505 18.8884 4.43637 18.98C4.3283 19.0514 4.06702 19.2087 3.73436 19.1681C3.3859 19.1254 3.19462 18.8856 3.12268 18.778C3.03608 18.6484 2.98456 18.5081 2.95156 18.3882C2.88395 18.1427 2.85449 17.8357 2.86082 17.4796C2.87363 16.7593 3.03546 15.7192 3.47423 14.3067C3.81326 13.2151 4.19262 12.2754 4.70284 11.0115L4.70975 10.9944C4.8035 10.7622 4.9018 10.5186 5.00551 10.2603C4.96711 7.94188 5.42674 5.73408 6.53499 4.07073C7.69064 2.33623 9.51467 1.25548 12.0014 1.25051C12.0042 1.25051 12.0071 1.25049 12.01 1.25049C12.0129 1.25049 12.0157 1.25049 12.0186 1.25049C14.5053 1.25546 16.3293 2.33623 17.485 4.07073C18.5932 5.73408 19.0529 7.94188 19.0145 10.2603C19.1182 10.5186 19.2165 10.7622 19.3102 10.9944L19.3171 11.0115C19.8273 12.2754 20.2067 13.2151 20.5457 14.3067C20.9845 15.7192 21.1463 16.7593 21.1591 17.4796C21.1655 17.8357 21.136 18.1427 21.0684 18.3882C21.0354 18.5081 20.9839 18.6484 20.8973 18.778C20.8253 18.8856 20.6341 19.1254 20.2856 19.1681C19.9529 19.2087 19.6917 19.0514 19.5836 18.98C19.4449 18.8884 19.3178 18.7721 19.211 18.6635C19.0849 18.5353 18.9562 18.3861 18.8323 18.2317C18.5984 18.8543 18.2493 19.4776 17.7814 20.0502C17.8903 20.1025 17.9975 20.1583 18.0995 20.2173C18.3313 20.3516 18.6145 20.5461 18.8074 20.8145C18.9097 20.9566 19.0071 21.1479 19.0329 21.3825C19.0598 21.6283 19.0014 21.8635 18.8809 22.0667C18.7558 22.2778 18.5711 22.3862 18.4713 22.4366C18.3567 22.4945 18.2364 22.5332 18.1312 22.5609C17.9189 22.6167 17.6648 22.6535 17.4026 22.6796C16.8716 22.7323 16.1969 22.751 15.5096 22.7499C14.1934 22.7479 12.7469 22.6728 12.01 22.5971ZM6.50834 10.3778C6.45107 8.18697 6.87976 6.25853 7.78329 4.90244C8.66043 3.58596 10.0177 2.75289 12.01 2.75049C14.0023 2.75289 15.3595 3.58596 16.2367 4.90244C17.1402 6.25853 17.5689 8.18697 17.5116 10.3778C17.5089 10.4799 17.5272 10.5814 17.5651 10.6762C17.6907 10.9897 17.8084 11.2812 17.9189 11.5551C18.4366 12.8374 18.7941 13.7242 19.1132 14.7517C19.3688 15.5744 19.514 16.2313 19.5895 16.7394C19.3159 16.3503 19.1007 16.006 19.0805 15.9737C18.9241 15.7225 18.6347 15.5868 18.3416 15.6271L18.3404 15.6273C17.9697 15.6783 17.6933 15.9946 17.6926 16.3688C17.6906 17.3653 17.1617 18.7535 15.966 19.7666C15.8319 19.8802 15.7419 20.0374 15.7119 20.2106L15.7117 20.2119C15.6719 20.441 15.7407 20.6757 15.8979 20.8471L15.8988 20.8481C15.9888 20.9461 16.1031 21.0185 16.2302 21.0578C16.371 21.1012 16.5414 21.1584 16.7165 21.2253C16.3564 21.243 15.9452 21.2506 15.5119 21.2499C14.1868 21.2479 12.6526 21.1634 12.01 21.0928C11.3673 21.1634 9.83315 21.2479 8.50805 21.2499C8.07472 21.2506 7.66352 21.243 7.30348 21.2253C7.47854 21.1584 7.64897 21.1012 7.78974 21.0578C7.91683 21.0185 8.0312 20.9461 8.12111 20.8481L8.12208 20.8471C8.27927 20.6757 8.34805 20.441 8.30829 20.2119L8.30807 20.2106C8.27801 20.0374 8.18806 19.8802 8.05393 19.7666C6.85823 18.7535 6.32938 17.3653 6.32737 16.3688C6.32662 15.9946 6.05023 15.6783 5.67958 15.6273L5.67832 15.6271C5.38522 15.5868 5.09582 15.7225 4.93944 15.9737C4.91929 16.006 4.70407 16.3503 4.43041 16.7394C4.50597 16.2313 4.65115 15.5744 4.90672 14.7517C5.22582 13.7242 5.58309 12.8381 6.10076 11.5557C6.2113 11.2819 6.32929 10.9896 6.45482 10.6762C6.4928 10.5814 6.51101 10.4799 6.50834 10.3778Z" fill="black"/>
</svg>
